<?xml version="1.0" encoding="utf-8"?>
<!DOCTYPE svg PUBLIC "-//W3C//DTD SVG 1.1//EN" "http://www.w3.org/Graphics/SVG/1.1/DTD/svg11.dtd">
<svg version="1.1" id="Layer_1" xmlns="http://www.w3.org/2000/svg" xmlns:xlink="http://www.w3.org/1999/xlink" x="0px" y="0px"
	 width="80px" height="80px" viewBox="0 0 798.378 799.978" enable-background="new 0 0 798.378 799.978"
	 xml:space="preserve">
<path fill="none" d="M363.864,90.273"/>
<path fill="none" d="M145.512,90.847"/>
<path fill="none" d="M65.203,155.895"/>
<path fill="#660000" stroke="#000000" stroke-miterlimit="10" d="M728.364,434.859c0.073-0.922,0.128-1.851,0.128-2.793
	c0-17.65-14.412-31.958-32.192-31.958c-17.777,0-32.19,14.308-32.19,31.958c0,1.364,0.106,2.705,0.289,4.024v177.976
	c0.206,48.63-17.865,51.239-52.888,51.239H190.837c-46.495,0-55.401-4.131-55.4-57.176V206.694c0-51.933-0.801-70.324,44.464-70.324
	H367.64v-0.217c18.731-0.258,32.329-15.157,32.329-33.524c0-17.857-14.297-32.451-32.329-33.485V69.08H166.652
	c-71.953,12.519-91.117,48.301-98.327,101.718v455.384c0,82.94,61.581,104.849,106.131,104.849h458.703
	c43.701,0,98.327-34.428,95.206-95.459V434.859z"/>
<path fill="#660000" opacity="0.8" d="M725.773,227.444L576.05,77.237c-9.635-9.666-26.549-11.505-35.857-2.178L230.149,385.741
	c-28.76,27.718-26.622,23.47-26.622,45.52v128.18c-0.038,22.171,3.843,36.139,31.545,39.029h132.988
	c25.183,0,30.602-7.435,40.902-18.582l8.595-8.612c0,0,0.001,0,0.001-0.002l308.804-309.441
	C735.671,252.505,735.407,237.11,725.773,227.444z M362.292,532.992l0.077,0.08h-0.157l-0.111,0.112l-0.108-0.112h-90.93
	l-0.411-94.762l0.411-0.413l0.112-0.112l193.676-194.106L557.85,337L362.292,532.992z M605.146,289.599l-92.998-93.322l46.487-46.59
	l93.01,93.31L605.146,289.599z"/>
</svg>
