<?xml version="1.0" encoding="utf-8"?>
<!DOCTYPE svg PUBLIC "-//W3C//DTD SVG 1.1//EN" "http://www.w3.org/Graphics/SVG/1.1/DTD/svg11.dtd">
<svg version="1.1" id="Layer_1" xmlns="http://www.w3.org/2000/svg" xmlns:xlink="http://www.w3.org/1999/xlink" x="0px" y="0px"
	 width="80px" height="80px" viewBox="0 0 798.378 799.978" enable-background="new 0 0 798.378 799.978"
	 xml:space="preserve">
<path fill="none" d="M363.864,90.273"/>
<path fill="none" d="M145.512,90.847"/>
<path fill="none" d="M65.203,155.895"/>
<path fill="#660000" opacity="0.8" d="M332.248,336.375c-17.466,0-31.733,14.199-32.648,32.068h-0.048v201.894h0.101
	c1.25,17.046,15.361,30.488,32.596,30.488c17.238,0,31.348-13.442,32.598-30.488h0.1V368.443h-0.048
	C363.983,350.573,349.717,336.375,332.248,336.375z"/>
<path fill="#660000" opacity="0.8" d="M463.838,334.521c-17.466,0-31.733,14.199-32.648,32.068h-0.048v201.894h0.101
	c1.25,17.046,15.361,30.488,32.596,30.488c17.238,0,31.348-13.442,32.598-30.488h0.1V366.589h-0.048
	C495.574,348.72,481.307,334.521,463.838,334.521z"/>
<path fill="#660000" d="M668.697,202.313v-0.017h-37.825h-66.459h-32.406v-31.792c0.364-48.07-37.216-101.425-95.106-101.425
	h-70.554c-40.511,0-96.922,27.511-99.979,92.896v40.321h-33.175h-68.029h-34.312v0.015c-0.186-0.003-0.37-0.015-0.556-0.015
	c-17.478,0-31.648,14.752-31.648,32.949s14.17,32.949,31.648,32.949c0.187,0,0.371-0.011,0.556-0.015v0.455h34.312v369.384
	c0,58.154,49.403,95.037,100.083,95.037h272.851c27.362,0,100.166-32.947,92.774-113.313V268.633h37.825v-0.016
	c17.195-0.346,31.032-15.051,31.032-33.152C699.729,217.364,685.893,202.659,668.697,202.313z M332.271,176.248
	c-0.017-23.794,6.6-40.927,42.673-40.927h53.613c27.075,0,36.547,18.085,36.545,35.957v31.019H332.264L332.271,176.248z
	 M531.395,668.909H268.648c-10.531,0-35.455-7.964-35.455-37.48V268.633h331.22v357.921
	C568.349,658.414,538.863,668.909,531.395,668.909z"/>
</svg>
