<?xml version="1.0" encoding="utf-8"?>
<!DOCTYPE svg PUBLIC "-//W3C//DTD SVG 1.1//EN" "http://www.w3.org/Graphics/SVG/1.1/DTD/svg11.dtd">
<svg version="1.1" id="Layer_1" xmlns="http://www.w3.org/2000/svg" xmlns:xlink="http://www.w3.org/1999/xlink" x="0px" y="0px"
	 width="80px" height="80px" viewBox="0 0 798.378 799.978" enable-background="new 0 0 798.378 799.978"
	 xml:space="preserve">
<path fill="none" d="M399.189,399.989"/>
<path fill="none" d="M399.189,399.989"/>
<path fill="none" d="M399.189,399.989"/>
<path fill="#660000" d="M398.689,159.47c-164.457,0-303.885,102.631-352.285,240.519h-0.001
	c48.4,137.888,188.829,240.52,353.286,240.52s303.885-102.632,352.285-240.52C703.574,262.101,563.146,159.47,398.689,159.47z
	 M399.189,561.997c-88.09,0-159.5-72.534-159.5-162.009s71.41-162.009,159.5-162.009c88.089,0,159.5,72.534,159.5,162.009
	S487.278,561.997,399.189,561.997z"/>
<ellipse fill="#660000" opacity="0.8" cx="399.189" cy="399.989" rx="96.456" ry="96.689"/>
</svg>
