<?xml version="1.0" encoding="utf-8"?>
<!-- Generator: Adobe Illustrator 27.7.0, SVG Export Plug-In . SVG Version: 6.00 Build 0)  -->
<svg version="1.1" id="Layer_1" xmlns="http://www.w3.org/2000/svg" xmlns:xlink="http://www.w3.org/1999/xlink" x="0px" y="0px"
	 viewBox="0 0 149.53 135.13" style="enable-background:new 0 0 149.53 135.13;" xml:space="preserve">
<style type="text/css">
	.st0{fill:#ED1C24;}
	.st1{fill:#010101;}
</style>
<g>
	<path class="st0" d="M74.98,132.89h-54c-14.73,0-23.93-15.94-16.57-28.7l27-46.77l27-46.77c7.36-12.76,25.78-12.76,33.14,0
		l27,46.77l27,46.77c7.36,12.76-1.84,28.7-16.57,28.7H74.98z"/>
	<g>
		<path class="st1" d="M54.01,104.51l0.31,2.52l3,0.54l0.54,1.99l-6.33,4.82c-1.68,1.28-3.56,2.19-5.6,2.71
			c-1.96,0.5-3.98,0.62-5.99,0.34c-2.01-0.27-3.92-0.92-5.68-1.93c-1.82-1.04-3.39-2.42-4.67-4.1c-1.28-1.68-2.19-3.56-2.71-5.6
			c-0.5-1.96-0.62-3.98-0.34-5.99c0.27-2.01,0.92-3.92,1.93-5.68c1.04-1.82,2.42-3.39,4.11-4.67l6.33-4.82l0.42,2.6l3.43,2.45
			l-6.33,4.82c-4.08,3.11-4.88,8.95-1.77,13.04c3.11,4.08,8.95,4.88,13.04,1.77L54.01,104.51z"/>
		<path class="st1" d="M69.58,99.65c1.49,0.46,3.01,0.72,4.55,0.77c-0.97,0.89-2.06,1.65-3.24,2.28l-9.06,4.78l-0.5-2.43l-2.47-1.42
			l0-1.77L66,98.09C67.12,98.74,68.32,99.26,69.58,99.65z"/>
		<path class="st1" d="M79.22,89.05l-1,0.53c-1.74,0.92-3.69,1.08-5.46,0.6c0.27-1.88-0.02-3.86-0.98-5.67
			c-0.95-1.81-2.42-3.17-4.13-4.01c-2.58-1.26-5.71-1.32-8.44,0.12l-9.06,4.78l-3.2-2.93l0.23-2.69l9.06-4.78
			c1.19-0.63,2.43-1.09,3.71-1.4c0.74-0.18,1.49-0.3,2.26-0.36c2.02-0.17,4.02,0.04,5.97,0.64c1.44,0.45,2.8,1.09,4.04,1.92
			c0.43,0.28,0.84,0.59,1.24,0.92c1.62,1.33,2.95,2.95,3.94,4.81c0.99,1.87,1.58,3.87,1.76,5.96
			C79.21,88.02,79.23,88.54,79.22,89.05z"/>
		<path class="st1" d="M109.74,76.98c-0.6,1.94-1.55,3.72-2.83,5.29c-1.33,1.63-2.95,2.95-4.81,3.94L82.04,96.8
			c-1.19,0.63-2.43,1.09-3.71,1.4c-0.74,0.17-1.49,0.3-2.25,0.36c-2.02,0.17-4.02-0.04-5.97-0.64c-1.44-0.45-2.8-1.09-4.04-1.91
			c-0.43-0.28-0.84-0.59-1.24-0.92c-1.62-1.33-2.95-2.95-3.94-4.81c-0.99-1.87-1.58-3.87-1.76-5.96c-0.04-0.52-0.06-1.03-0.06-1.54
			l1-0.53c1.74-0.92,3.69-1.08,5.46-0.6c-0.27,1.88,0.02,3.86,0.98,5.67c0.95,1.81,2.42,3.17,4.13,4.01
			c2.58,1.26,5.71,1.32,8.44-0.12l20.05-10.59c4.54-2.4,6.28-8.03,3.88-12.57c-2.4-4.54-8.03-6.28-12.57-3.88L72.3,73.72
			c-1.13-0.65-2.32-1.17-3.58-1.56c-1.49-0.46-3.01-0.72-4.54-0.77c0.97-0.89,2.06-1.65,3.24-2.28l20.05-10.59
			c1.87-0.99,3.87-1.58,5.96-1.76c2.02-0.17,4.02,0.04,5.97,0.64c1.94,0.6,3.72,1.55,5.29,2.83c1.62,1.33,2.95,2.95,3.94,4.81
			c0.99,1.87,1.58,3.87,1.76,5.96C110.56,73.03,110.34,75.04,109.74,76.98z"/>
		
			<rect x="39.35" y="73.98" transform="matrix(0.8843 -0.467 0.467 0.8843 -31.0387 27.4506)" class="st1" width="1.02" height="4.72"/>
		<g>
			
				<rect x="36.75" y="77.33" transform="matrix(0.4358 -0.9 0.9 0.4358 -50.7018 78.4907)" class="st1" width="1.02" height="4.72"/>
			
				<rect x="41.73" y="75.57" transform="matrix(0.1475 -0.9891 0.9891 0.1475 -37.6601 108.4619)" class="st1" width="4.72" height="1.02"/>
		</g>
	</g>
</g>
</svg>
