<svg width="62" height="62" xmlns="http://www.w3.org/2000/svg" fill="none">

 <g>
  <title>Layer 1</title>
  <path id="svg_1" fill="#E2E5E7" d="m15.5,0c-2.1313,0 -3.875,1.74375 -3.875,3.875l0,54.25c0,2.1312 1.7437,3.875 3.875,3.875l38.75,0c2.1312,0 3.875,-1.7438 3.875,-3.875l0,-42.625l-15.5,-15.5l-27.125,0z"/>
  <path id="svg_2" fill="#B0B7BD" d="m46.5,15.5l11.625,0l-15.5,-15.5l0,11.625c0,2.1313 1.7437,3.875 3.875,3.875z"/>
  <path id="svg_3" fill="#CAD1D8" d="m58.125,27.125l-11.625,-11.625l11.625,0l0,11.625z"/>
  <path id="svg_4" fill="#4fe291" d="m50.375,50.375c0,1.0656 -0.8719,1.9375 -1.9375,1.9375l-42.625,0c-1.06563,0 -1.9375,-0.8719 -1.9375,-1.9375l0,-19.375c0,-1.0656 0.87187,-1.9375 1.9375,-1.9375l42.625,0c1.0656,0 1.9375,0.8719 1.9375,1.9375l0,19.375z"/>
  <path id="svg_5" fill="white" d="m15.8971,39.498l2.697,-3.377c0.8041,-1.0521 2.3696,0.2945 1.488,1.302c-0.928,1.1005 -1.9045,2.294 -2.8365,3.5146l3.162,3.935c0.8506,1.1625 -0.8525,2.2785 -1.6895,1.1315l-2.85,-3.656l-2.8036,3.7335c-0.7905,1.1296 -2.542,-0.1395 -1.6566,-1.1935l3.1136,-3.9505c-0.9765,-1.2226 -1.922,-2.4141 -2.8656,-3.5146c-0.9765,-1.1625 0.837,-2.3541 1.5481,-1.2691l2.6931,3.3441z"/>
  <path id="svg_7" fill="white" d="m24.46873,36.7099c0,-0.5115 0.434,-0.9455 0.9765,-0.9455c0.496,0 0.9145,0.4359 0.9145,0.9455l0,7.7616l4.2141,0c1.517,0 1.55,2.0286 0,2.0286l-5.1266,0c-0.5425,0 -0.9765,-0.3856 -0.9765,-0.9455l0,-8.8447l-0.002,0z"/>
  <path id="svg_8" fill="#CAD1D8" d="m48.4375,52.3125l-36.8125,0l0,1.9375l36.8125,0c1.0656,0 1.9375,-0.8719 1.9375,-1.9375l0,-1.9375c0,1.0656 -0.8719,1.9375 -1.9375,1.9375z"/>
  <path id="svg_9" fill="white" d="m34.97886,38.1048c0.3565,-3.007 4.8941,-3.5475 7.0312,-1.9045c1.054,0.8505 -0.0601,2.199 -0.992,1.517c-1.1451,-0.7266 -3.7491,-1.0675 -4.0746,0.5406c-0.4185,2.542 6.3221,1.0869 6.2117,5.208c-0.1085,3.935 -5.8087,4.0261 -7.9477,2.261c-0.5115,-0.4185 -0.496,-1.0985 -0.215,-1.519c0.401,-0.401 0.8505,-0.5405 1.3775,-0.1065c1.271,0.866 4.5396,1.517 4.7721,-0.684c-0.1996,-2.2901 -6.6437,-0.9125 -6.1632,-5.3126z"/>
 </g>
</svg>